<?xml version="1.0" encoding="UTF-8"?>
<!--
  geknee icon set — visual contact sheet.
  Source: lib/icons.tsx · regenerate with `node bin/render-icon-sheet.mjs`.

  Design language: 24x24 viewBox, stroke 1.6, currentColor, line-only,
  geometric primitives. Replaces the generic Unicode emojis previously
  used across transit, monuments, and state markers.
-->
<svg xmlns="http://www.w3.org/2000/svg" width="720" height="540" viewBox="0 0 720 540" font-family="JetBrains Mono, ui-monospace, monospace" font-size="10">
  <style>
    .bg { fill: #0a0a1f; }
    .card { fill: rgba(167,139,250,0.06); stroke: rgba(167,139,250,0.18); stroke-width: 1; }
    .icon { stroke: #f2f2f8; stroke-width: 1.6; fill: none; stroke-linecap: round; stroke-linejoin: round; }
    .icon-fill { fill: #f2f2f8; }
    .label { fill: #a8a8c0; letter-spacing: 0.12em; text-transform: uppercase; }
    .accent { fill: #a78bfa; letter-spacing: 0.16em; }
    .header { fill: #f2f2f8; font-family: Georgia, serif; font-size: 22px; }
    .sub { fill: #6b6b85; font-size: 9px; letter-spacing: 0.18em; text-transform: uppercase; }
  </style>

  <rect class="bg" width="720" height="540" />

  <text x="36" y="50" class="accent" font-size="9" font-weight="700">✦ GEKNEE ICONS — V1</text>
  <text x="36" y="80" class="header">Custom line set, no emojis.</text>
  <text x="36" y="100" class="sub">24×24 · stroke 1.6 · currentColor · 23 glyphs</text>

  <!-- Grid: 6 columns × 4 rows; each cell 96×84; first row at y=130 -->

  <!-- Row 1 -->
  <g transform="translate(36,130)">
    <rect class="card" width="92" height="80" rx="10"/>
    <g class="icon" transform="translate(34,18) scale(1.0)">
      <circle cx="13" cy="4.5" r="1.8"/>
      <path d="M11 8l-2 5 3 1 1 5"/>
      <path d="M14 10l3 1-1 3"/>
      <path d="M11 13l-3 3"/>
    </g>
    <text x="46" y="70" class="label" text-anchor="middle">Walk</text>
  </g>
  <g transform="translate(140,130)">
    <rect class="card" width="92" height="80" rx="10"/>
    <g class="icon" transform="translate(34,18)">
      <rect x="5" y="3" width="14" height="14" rx="2.5"/>
      <path d="M5 11h14"/>
      <circle cx="9" cy="14" r="0.6" class="icon-fill"/>
      <circle cx="15" cy="14" r="0.6" class="icon-fill"/>
      <path d="M9 17l-2 4M15 17l2 4"/>
    </g>
    <text x="46" y="70" class="label" text-anchor="middle">Subway</text>
  </g>
  <g transform="translate(244,130)">
    <rect class="card" width="92" height="80" rx="10"/>
    <g class="icon" transform="translate(34,18)">
      <path d="M5 5h14v11a1 1 0 01-1 1H6a1 1 0 01-1-1V5z"/>
      <path d="M5 10h14"/>
      <circle cx="9" cy="13.5" r="0.7" class="icon-fill"/>
      <circle cx="15" cy="13.5" r="0.7" class="icon-fill"/>
      <path d="M7 17v2M17 17v2"/>
    </g>
    <text x="46" y="70" class="label" text-anchor="middle">Bus</text>
  </g>
  <g transform="translate(348,130)">
    <rect class="card" width="92" height="80" rx="10"/>
    <g class="icon" transform="translate(34,18)">
      <path d="M3 14l1.5-4.5A2 2 0 016.4 8h11.2a2 2 0 011.9 1.5L21 14"/>
      <rect x="3" y="14" width="18" height="4" rx="1"/>
      <circle cx="7" cy="18" r="1.3"/>
      <circle cx="17" cy="18" r="1.3"/>
      <path d="M9 6h6v2"/>
    </g>
    <text x="46" y="70" class="label" text-anchor="middle">Taxi</text>
  </g>
  <g transform="translate(452,130)">
    <rect class="card" width="92" height="80" rx="10"/>
    <g class="icon" transform="translate(34,18)">
      <rect x="5" y="3" width="14" height="13" rx="3"/>
      <path d="M5 10h14"/>
      <circle cx="9" cy="13" r="0.7" class="icon-fill"/>
      <circle cx="15" cy="13" r="0.7" class="icon-fill"/>
      <path d="M8 16l-2 5M16 16l2 5"/>
      <path d="M9 6h6"/>
    </g>
    <text x="46" y="70" class="label" text-anchor="middle">Train</text>
  </g>
  <g transform="translate(556,130)">
    <rect class="card" width="92" height="80" rx="10"/>
    <g class="icon" transform="translate(34,18)">
      <circle cx="6" cy="16" r="3.5"/>
      <circle cx="18" cy="16" r="3.5"/>
      <path d="M6 16l4-7h5l3 7"/>
      <circle cx="14" cy="6" r="1" class="icon-fill"/>
      <path d="M10 9l4-3"/>
    </g>
    <text x="46" y="70" class="label" text-anchor="middle">Bike</text>
  </g>

  <!-- Row 2 -->
  <g transform="translate(36,225)">
    <rect class="card" width="92" height="80" rx="10"/>
    <g class="icon" transform="translate(34,18)">
      <path d="M3 15c2 2 4 2 6 0s4-2 6 0 4 2 6 0"/>
      <path d="M4 12l2-3h12l2 3"/>
      <path d="M12 3v9"/>
      <path d="M12 4l6 5"/>
    </g>
    <text x="46" y="70" class="label" text-anchor="middle">Ferry</text>
  </g>
  <g transform="translate(140,225)">
    <rect class="card" width="92" height="80" rx="10"/>
    <g class="icon" transform="translate(34,18)">
      <path d="M21 12l-7 7-2-5-5-2 7-7 7 7z"/>
      <path d="M14 19l-1-4M5 12l4-1"/>
    </g>
    <text x="46" y="70" class="label" text-anchor="middle">Plane</text>
  </g>
  <g transform="translate(244,225)">
    <rect class="card" width="92" height="80" rx="10"/>
    <g class="icon" transform="translate(34,18)">
      <path d="M12 21s-7-7.5-7-12a7 7 0 0114 0c0 4.5-7 12-7 12z"/>
      <circle cx="12" cy="9" r="2.5"/>
    </g>
    <text x="46" y="70" class="label" text-anchor="middle">Pin</text>
  </g>
  <g transform="translate(348,225)">
    <rect class="card" width="92" height="80" rx="10"/>
    <g class="icon" transform="translate(34,18)">
      <circle cx="12" cy="12" r="8.5"/>
      <path d="M3.5 12h17"/>
      <path d="M12 3.5c2.5 2.5 4 5.5 4 8.5s-1.5 6-4 8.5c-2.5-2.5-4-5.5-4-8.5s1.5-6 4-8.5z"/>
    </g>
    <text x="46" y="70" class="label" text-anchor="middle">Globe</text>
  </g>
  <g transform="translate(452,225)">
    <rect class="card" width="92" height="80" rx="10"/>
    <g class="icon" transform="translate(34,18)">
      <path d="M3 9l9-5 9 5"/>
      <path d="M4 9v9M20 9v9"/>
      <path d="M8 11v7M12 11v7M16 11v7"/>
      <path d="M3 20h18"/>
    </g>
    <text x="46" y="70" class="label" text-anchor="middle">Monument</text>
  </g>
  <g transform="translate(556,225)">
    <rect class="card" width="92" height="80" rx="10"/>
    <g class="icon" transform="translate(34,18)">
      <circle cx="12" cy="12" r="8.5"/>
      <path d="M15 9l-1.5 4.5L9 15l1.5-4.5L15 9z"/>
    </g>
    <text x="46" y="70" class="label" text-anchor="middle">Compass</text>
  </g>

  <!-- Row 3 -->
  <g transform="translate(36,320)">
    <rect class="card" width="92" height="80" rx="10"/>
    <g class="icon" transform="translate(34,18)">
      <path d="M3 6l6-2 6 2 6-2v14l-6 2-6-2-6 2V6z"/>
      <path d="M9 4v16M15 6v16"/>
    </g>
    <text x="46" y="70" class="label" text-anchor="middle">Map</text>
  </g>
  <g transform="translate(140,320)">
    <rect class="card" width="92" height="80" rx="10"/>
    <g class="icon" transform="translate(34,18)" stroke="#a78bfa">
      <path d="M12 3v6M12 15v6M3 12h6M15 12h6"/>
      <path d="M7 7l3.5 3.5M13.5 13.5L17 17M17 7l-3.5 3.5M10.5 13.5L7 17"/>
    </g>
    <text x="46" y="70" class="label" text-anchor="middle">Sparkle</text>
  </g>
  <g transform="translate(244,320)">
    <rect class="card" width="92" height="80" rx="10"/>
    <g class="icon" transform="translate(34,18)">
      <rect x="5" y="11" width="14" height="9" rx="2"/>
      <path d="M8 11V8a4 4 0 018 0v3"/>
    </g>
    <text x="46" y="70" class="label" text-anchor="middle">Lock</text>
  </g>
  <g transform="translate(348,320)">
    <rect class="card" width="92" height="80" rx="10"/>
    <g class="icon" transform="translate(34,18)">
      <rect x="5" y="11" width="14" height="9" rx="2"/>
      <path d="M8 11V8a4 4 0 018 0"/>
    </g>
    <text x="46" y="70" class="label" text-anchor="middle">Unlock</text>
  </g>
  <g transform="translate(452,320)">
    <rect class="card" width="92" height="80" rx="10"/>
    <g class="icon" transform="translate(34,18)">
      <path d="M4 8h3l1.5-2h7L17 8h3a1 1 0 011 1v9a1 1 0 01-1 1H4a1 1 0 01-1-1V9a1 1 0 011-1z"/>
      <circle cx="12" cy="13.5" r="3.2"/>
    </g>
    <text x="46" y="70" class="label" text-anchor="middle">Camera</text>
  </g>
  <g transform="translate(556,320)">
    <rect class="card" width="92" height="80" rx="10"/>
    <g class="icon" transform="translate(34,18)">
      <path d="m21 12-9.5 9.5a5.5 5.5 0 1 1-7.78-7.78L13.22 4.22a3.5 3.5 0 1 1 4.95 4.95L8.66 18.68a1.5 1.5 0 1 1-2.12-2.12L15.07 8"/>
    </g>
    <text x="46" y="70" class="label" text-anchor="middle">Paperclip</text>
  </g>

  <!-- Row 4 -->
  <g transform="translate(36,415)">
    <rect class="card" width="92" height="80" rx="10"/>
    <g class="icon" transform="translate(34,18)">
      <path d="M3 9v11M21 14v6"/>
      <path d="M3 14h18"/>
      <path d="M3 9h11a4 4 0 014 4v1"/>
      <circle cx="8" cy="11.5" r="1.5"/>
    </g>
    <text x="46" y="70" class="label" text-anchor="middle">Bed</text>
  </g>
  <g transform="translate(140,415)">
    <rect class="card" width="92" height="80" rx="10"/>
    <g class="icon" transform="translate(34,18)">
      <path d="M7 3v18M5 3v6a2 2 0 002 2 2 2 0 002-2V3"/>
      <path d="M16 3a4 4 0 014 4v4h-2v10"/>
    </g>
    <text x="46" y="70" class="label" text-anchor="middle">Dining</text>
  </g>
  <g transform="translate(244,415)">
    <rect class="card" width="92" height="80" rx="10"/>
    <g class="icon" transform="translate(34,18)">
      <path d="M7 3h10v4a5 5 0 01-10 0V3z"/>
      <path d="M5 5H3v2a3 3 0 003 3M19 5h2v2a3 3 0 01-3 3"/>
      <path d="M9 14h6l1 4H8z"/>
      <path d="M7 21h10"/>
    </g>
    <text x="46" y="70" class="label" text-anchor="middle">Trophy</text>
  </g>
  <g transform="translate(348,415)">
    <rect class="card" width="92" height="80" rx="10"/>
    <g class="icon" transform="translate(34,18)">
      <path d="M12 20s-7-4.5-7-10a4 4 0 017-2.6A4 4 0 0119 10c0 5.5-7 10-7 10z"/>
    </g>
    <text x="46" y="70" class="label" text-anchor="middle">Heart</text>
  </g>
  <g transform="translate(452,415)">
    <rect class="card" width="92" height="80" rx="10"/>
    <g class="icon" transform="translate(34,18)">
      <rect x="3.5" y="5" width="17" height="15" rx="2"/>
      <path d="M3.5 10h17"/>
      <path d="M8 3v4M16 3v4"/>
    </g>
    <text x="46" y="70" class="label" text-anchor="middle">Calendar</text>
  </g>
  <g transform="translate(556,415)">
    <rect class="card" width="92" height="80" rx="10"/>
    <text x="46" y="44" text-anchor="middle" class="sub">+ MORE</text>
    <text x="46" y="60" text-anchor="middle" fill="#6b6b85" font-size="8">lib/icons.tsx</text>
    <text x="46" y="70" class="label" text-anchor="middle">Library</text>
  </g>
</svg>
